<?xml version="1.0" encoding="iso-8859-1"?>
<!-- Generator: Adobe Illustrator 19.0.0, SVG Export Plug-In . SVG Version: 6.00 Build 0)  -->
<svg xmlns="http://www.w3.org/2000/svg" xmlns:xlink="http://www.w3.org/1999/xlink" version="1.1" id="Layer_1" x="0px" y="0px" viewBox="0 0 512 512" style="enable-background:new 0 0 512 512;" xml:space="preserve" width="512" height="512">
<g id="XMLID_1828_">
	<g id="XMLID_1829_">
		<circle id="XMLID_2365_" style="fill:#FFE578;" cx="256.24" cy="256" r="248.5"/>
		<path id="XMLID_1830_" style="fill:#FDC142;" d="M256.24,475.407c-58.606,0-113.704-22.822-155.144-64.263    S36.833,314.606,36.833,256s22.822-113.704,64.263-155.144s96.538-64.263,155.144-64.263s113.704,22.822,155.144,64.263    S475.647,197.394,475.647,256s-22.822,113.704-64.263,155.144S314.846,475.407,256.24,475.407z"/>
		<circle id="XMLID_2363_" style="fill:#FD8724;" cx="256.24" cy="256" r="206.407"/>
		<g id="XMLID_1831_">
			<g id="XMLID_1832_">
				<g id="XMLID_1833_">
					<g id="XMLID_1834_">
						<path id="XMLID_1835_" style="fill:#E3F4FF;" d="M240.137,159.744v-23.007c0-7.458-6.046-13.504-13.504-13.504        s-13.504,6.046-13.504,13.504v23.007H240.137z"/>
					</g>
					<g id="XMLID_1836_">
						<path id="XMLID_1837_" style="fill:#E3F4FF;" d="M299.351,159.744v-23.007c0-7.458-6.046-13.504-13.504-13.504        s-13.504,6.046-13.504,13.504v23.007H299.351z"/>
					</g>
				</g>
				<g id="XMLID_1838_">
					<g id="XMLID_1839_">
						<path id="XMLID_1840_" style="fill:#E3F4FF;" d="M213.129,352.4v22.863c0,7.458,6.046,13.504,13.504,13.504        s13.504-6.046,13.504-13.504V352.4H213.129z"/>
					</g>
					<g id="XMLID_1841_">
						<path id="XMLID_1842_" style="fill:#E3F4FF;" d="M272.343,352.4v22.863c0,7.458,6.046,13.504,13.504,13.504        s13.504-6.046,13.504-13.504V352.4H272.343z"/>
					</g>
				</g>
			</g>
			<path id="XMLID_1843_" style="fill:#FDC142;" d="M318.363,256.478c11.657-10.706,19.038-25.999,19.238-42.99     c0.388-33.026-27.139-60.052-60.167-60.052h-86.538c-8.483,0-15.709,6.597-16.01,15.075c-0.317,8.901,6.805,16.216,15.635,16.216     h0.375c3.346,0,6.058,2.712,6.058,6.058v131.385c0,3.346-2.712,6.058-6.058,6.058h0c-8.168,0-15.252,6.108-15.96,14.245     c-0.806,9.271,6.481,17.046,15.584,17.046h86.913c33.029,0,60.556-27.026,60.167-60.052     C337.401,282.477,330.02,267.184,318.363,256.478z M278.261,184.728c15.468,0,28.053,12.584,28.053,28.053     c0,15.468-12.584,28.052-28.053,28.052h-50.016v-56.105H278.261z M278.261,328.229h-50.016v-56.105h50.016     c15.468,0,28.053,12.584,28.053,28.053C306.314,315.644,293.729,328.229,278.261,328.229z"/>
		</g>
	</g>
	<g id="XMLID_1847_">
		<path id="XMLID_1848_" d="M272.493,469.272c0.196,0,0.393-0.008,0.591-0.023c53.527-4.172,103.204-28.205,139.881-67.671    c36.874-39.678,57.181-91.379,57.181-145.578c0-57.137-22.25-110.854-62.652-151.255c-40.401-40.402-94.118-62.652-151.255-62.652    s-110.854,22.25-151.255,62.652C64.583,145.146,42.333,198.863,42.333,256c0,53.835,20.071,105.277,56.516,144.851    c36.225,39.335,85.403,63.561,138.474,68.214c4.129,0.354,7.765-2.69,8.126-6.816c0.362-4.126-2.69-7.765-6.816-8.126    c-49.339-4.327-95.063-26.854-128.751-63.434C75.996,353.893,57.333,306.06,57.333,256c0-109.678,89.229-198.907,198.907-198.907    S455.147,146.322,455.147,256c0,50.398-18.882,98.472-53.169,135.366c-34.107,36.701-80.296,59.049-130.06,62.928    c-4.129,0.322-7.216,3.931-6.895,8.061C265.33,466.286,268.615,469.272,272.493,469.272z"/>
		<path id="XMLID_1849_" d="M143.993,133.147c-2.929-2.929-7.678-2.929-10.606,0c-67.742,67.741-67.742,177.965,0,245.706    c1.464,1.464,3.384,2.197,5.303,2.197s3.839-0.732,5.303-2.197c2.929-2.929,2.929-7.678,0-10.606    c-61.893-61.893-61.893-162.6,0-224.493C146.922,140.825,146.922,136.076,143.993,133.147z"/>
		<path id="XMLID_1850_" d="M368.486,378.853c1.464,1.464,3.384,2.197,5.303,2.197s3.839-0.732,5.303-2.197    c67.742-67.741,67.742-177.965,0-245.706c-2.929-2.929-7.678-2.929-10.606,0c-2.929,2.929-2.929,7.678,0,10.606    c61.893,61.893,61.893,162.6,0,224.493C365.557,371.175,365.557,375.924,368.486,378.853z"/>
		<path id="XMLID_1851_" d="M226.633,396.267c11.582,0,21.004-9.422,21.004-21.004v-8.243h17.206v8.243    c0,11.582,9.422,21.004,21.004,21.004s21.004-9.422,21.004-21.004V360.32c6.938-3.352,13.338-7.909,18.937-13.575    c12.663-12.812,19.521-29.634,19.313-47.366c-0.186-15.761-6.051-31.021-16.309-42.901c10.257-11.88,16.123-27.14,16.309-42.901    c0.208-17.732-6.65-34.553-19.313-47.365c-5.599-5.666-11.998-10.223-18.937-13.575v-15.899c0-11.582-9.422-21.004-21.004-21.004    s-21.004,9.422-21.004,21.004v9.199h-17.206v-9.199c0-11.582-9.422-21.004-21.004-21.004s-21.004,9.422-21.004,21.004v9.199    h-14.733c-12.736,0-23.061,9.799-23.505,22.308c-0.226,6.343,2.073,12.348,6.474,16.909c4.154,4.305,9.656,6.785,15.589,7.05    v128.569c-11.477,0.7-21.002,9.694-21.989,21.051c-0.563,6.474,1.622,12.921,5.993,17.689c4.375,4.771,10.594,7.507,17.063,7.507    h15.108v8.243C205.629,386.844,215.051,396.267,226.633,396.267z M232.637,375.263c0,3.311-2.693,6.004-6.004,6.004    s-6.004-2.693-6.004-6.004v-8.243h12.008V375.263z M291.851,375.263c0,3.311-2.693,6.004-6.004,6.004s-6.004-2.693-6.004-6.004    v-8.302c4.077-0.142,8.09-0.644,12.008-1.491V375.263z M285.847,130.733c3.311,0,6.004,2.693,6.004,6.004v10.75    c-3.918-0.847-7.931-1.349-12.008-1.491v-9.259C279.843,133.427,282.536,130.733,285.847,130.733z M220.629,136.737    c0-3.311,2.693-6.004,6.004-6.004s6.004,2.693,6.004,6.004v9.199h-12.008V136.737z M184.514,349.376    c-1.561-1.702-2.309-3.923-2.106-6.253c0.361-4.146,4.089-7.394,8.488-7.394c7.476,0,13.558-6.082,13.558-13.558V190.786    c0-7.476-6.082-13.558-13.558-13.558h-0.375c-2.231,0-4.313-0.884-5.863-2.491c-1.548-1.604-2.357-3.72-2.277-5.959    c0.154-4.324,3.974-7.841,8.515-7.841h86.538c14.22,0,27.603,5.618,37.685,15.819c9.822,9.938,15.144,22.953,14.982,36.645    c-0.167,14.208-6.295,27.896-16.812,37.554c-1.546,1.42-2.427,3.424-2.427,5.524c0,2.1,0.88,4.104,2.427,5.524    c10.517,9.659,16.645,23.347,16.812,37.554c0.161,13.692-5.16,26.706-14.982,36.645c-10.082,10.201-23.466,15.819-37.686,15.819    h-86.913C188.21,352.02,186.077,351.081,184.514,349.376z"/>
		<path id="XMLID_1858_" d="M313.814,300.176c0-19.604-15.949-35.553-35.553-35.553h-50.016c-4.142,0-7.5,3.358-7.5,7.5v56.105    c0,4.142,3.358,7.5,7.5,7.5h50.016C297.865,335.729,313.814,319.78,313.814,300.176z M235.745,279.624h42.516    c11.333,0,20.553,9.22,20.553,20.553s-9.22,20.553-20.553,20.553h-42.516V279.624z"/>
		<path id="XMLID_1861_" d="M228.245,248.333h50.016c19.604,0,35.553-15.949,35.553-35.552c0-19.604-15.949-35.553-35.553-35.553    h-50.016c-4.142,0-7.5,3.358-7.5,7.5v56.105C220.745,244.975,224.103,248.333,228.245,248.333z M235.745,192.228h42.516    c11.333,0,20.553,9.22,20.553,20.553c0,11.333-9.22,20.552-20.553,20.552h-42.516V192.228z"/>
		<path id="XMLID_1864_" d="M504.576,267.783c-4.14-0.323-7.735,2.775-8.051,6.905c-4.627,60.362-31.676,116.401-76.163,157.792    C375.644,474.086,317.358,497,256.24,497c-64.374,0-124.894-25.068-170.413-70.587C40.308,380.894,15.24,320.374,15.24,256    c0-59.416,21.82-116.497,61.442-160.729c2.764-3.085,2.503-7.827-0.583-10.59c-3.084-2.764-7.826-2.503-10.59,0.583    C23.42,132.25,0.24,192.886,0.24,256c0,68.38,26.629,132.667,74.98,181.02C123.573,485.371,187.86,512,256.24,512    c64.921,0,126.836-24.34,174.339-68.538c47.254-43.966,75.986-103.497,80.902-167.627    C511.797,271.705,508.706,268.1,504.576,267.783z"/>
		<path id="XMLID_1865_" d="M100.698,71.93C144.098,35.218,199.337,15,256.24,15c127.192,0,232.847,99.355,240.534,226.192    c0.241,3.98,3.544,7.047,7.479,7.047c0.152,0,0.306-0.005,0.46-0.014c4.135-0.25,7.283-3.806,7.033-7.94    C503.58,105.546,391.349,0,256.24,0C195.795,0,137.115,21.478,91.011,60.478c-3.163,2.675-3.558,7.407-0.882,10.57    C92.803,74.21,97.536,74.605,100.698,71.93z"/>
		<path id="XMLID_1866_" d="M261.497,92.657c4.142,0,7.5-3.358,7.5-7.5s-3.358-7.5-7.5-7.5h-10.515c-4.142,0-7.5,3.358-7.5,7.5    s3.358,7.5,7.5,7.5H261.497z"/>
		<path id="XMLID_1867_" d="M250.983,434.343h10.515c4.142,0,7.5-3.358,7.5-7.5s-3.358-7.5-7.5-7.5h-10.515    c-4.142,0-7.5,3.358-7.5,7.5S246.84,434.343,250.983,434.343z"/>
	</g>
</g>















</svg>
