<svg viewBox="-56 0 512 512" xmlns="http://www.w3.org/2000/svg"><path d="m378.242188 58.230469c-128.363282 0-244.570313 52.03125-328.691407 136.148437l306.21875 306.21875c8.292969 8.292969 22.472657 2.417969 22.472657-9.308594zm0 0" fill="#efa335"/><path d="m321.4375 61.675781v404.589844l34.332031 34.335937c8.292969 8.292969 22.472657 2.417969 22.472657-9.308593v-433.0625c-19.234376 0-38.1875 1.175781-56.804688 3.445312zm0 0" fill="#fd8f31"/><g fill="#fc4e51"><path d="m346.621094 137.449219c0 13.910156-11.273438 25.1875-25.183594 25.1875-13.914062 0-25.1875-11.277344-25.1875-25.1875 0-13.910157 11.273438-25.1875 25.1875-25.1875 13.910156 0 25.183594 11.277343 25.183594 25.1875zm0 0"/><path d="m245.679688 298.136719c0 12.578125-10.195313 22.773437-22.773438 22.773437s-22.777344-10.195312-22.777344-22.773437 10.199219-22.777344 22.777344-22.777344 22.773438 10.199219 22.773438 22.777344zm0 0"/><path d="m356.058594 294.707031c0 13.164063-10.675782 23.839844-23.84375 23.839844-13.164063 0-23.839844-10.675781-23.839844-23.839844 0-13.167969 10.675781-23.839843 23.839844-23.839843 13.167968 0 23.84375 10.671874 23.84375 23.839843zm0 0"/></g><path d="m324.175781 359.421875h-5.507812c-14.300781 0-25.890625 11.589844-25.890625 25.890625 0 3.863281 3.128906 6.992188 6.988281 6.992188h6.980469c1.570312 0 2.816406 1.316406 2.734375 2.882812l-.578125 10.871094c-.179688 3.355468 2.492187 6.175781 5.851562 6.175781h13.332032c3.363281 0 6.035156-2.820313 5.855468-6.175781l-.578125-10.871094c-.082031-1.566406 1.164063-2.882812 2.734375-2.882812h6.980469c3.859375 0 6.988281-3.128907 6.988281-6.992188.003906-14.296875-11.585937-25.890625-25.890625-25.890625zm0 0" fill="#dfede7"/><path d="m222.90625 198.222656v6.492188c0 16.855468 13.664062 30.519531 30.515625 30.519531 4.550781 0 8.242187-3.691406 8.242187-8.242187v-8.222657c0-1.851562 1.550782-3.324219 3.398438-3.226562l12.8125.683593c3.957031.210938 7.277344-2.941406 7.277344-6.902343v-15.710938c0-3.960937-3.324219-7.113281-7.277344-6.902343l-12.8125.683593c-1.847656.097657-3.398438-1.375-3.398438-3.226562v-8.226563c0-4.546875-3.691406-8.238281-8.242187-8.238281-16.851563 0-30.515625 13.664063-30.515625 30.519531zm0 0" fill="#dfede7"/><path d="m367.144531 7.511719c-1.3125-.011719-2.625-.019531-3.941406-.019531-135.753906 0-258.660156 55.027343-347.625 143.992187-.125.125-.25.25-.375.375-10.269531 10.292969-10.253906 27.132813.027344 37.414063l19.253906 19.257812c10.386719 10.382812 27.375 10.378906 37.753906-.007812l.191407-.191407c.050781-.054687.105468-.109375.160156-.164062 8.8125-8.800781 23.171875-8.554688 31.78125.449219l39.21875 41.019531c5.328125 5.574219 14.148437 5.671875 19.601562.222656 5.453125-5.453125 5.554688-14.472656.222656-20.046875l-28.226562-29.527344c-5.214844-5.457031-5.511719-14.15625-.308594-19.625 5.554688-5.835937 14.789063-5.789062 20.292969-.03125l8.890625 9.292969c5.214844 5.457031 13.894531 6.140625 19.585938 1.1875 6.082031-5.285156 6.453124-14.515625.949218-20.269531l-6.449218-6.746094c-10.433594-10.910156-7.253907-28.871094 6.339843-35.441406 54.042969-26.121094 114.667969-40.765625 178.714844-40.765625 1.214844 0 2.433594.007812 3.648437.015625 14.675782.132812 26.621094-11.773438 26.621094-26.453125v-27.453125c.003906-14.566406-11.761718-26.359375-26.328125-26.484375zm0 0" fill="#fccf3f"/><path d="m367.144531 7.511719c-1.3125-.011719-2.625-.019531-3.941406-.019531-9.175781 0-18.292969.261718-27.34375.757812v.222656 80.320313c9.039063-.59375 18.15625-.90625 27.34375-.90625 1.21875 0 2.433594.007812 3.648437.015625 14.675782.132812 26.621094-11.773438 26.621094-26.453125v-27.453125c.003906-14.566406-11.761718-26.359375-26.328125-26.484375zm0 0" fill="#efa335"/><path d="m367.210938.0195312c-1.335938-.0117187-2.671876-.0195312-4.007813-.0195312-67.375 0-132.738281 13.195312-194.277344 39.226562-59.433593 25.136719-112.808593 61.125-158.65625 106.96875l-.371093.375c-13.210938 13.238282-13.195313 34.777344.035156 48.003907l19.253906 19.257812c6.4375 6.4375 15.019531 9.980469 24.167969 9.980469h.007812c9.15625-.003906 17.738281-3.550781 24.179688-9.996094l.34375-.34375c2.757812-2.75 6.417969-4.261718 10.328125-4.261718h.179687c4.027344.046874 7.777344 1.675781 10.5625 4.585937l39.21875 41.023437c3.980469 4.164063 9.339844 6.492188 15.085938 6.558594h.242187c5.65625 0 10.96875-2.203125 14.988282-6.21875 8.320312-8.324218 8.476562-22.015625.339843-30.523437l-28.230469-29.527344c-2.519531-2.636719-2.652343-6.800781-.296874-9.277344 1.25-1.3125 2.929687-2.035156 4.730468-2.035156h.007813c1.796875 0 3.472656.714844 4.714843 2.011719l8.886719 9.296875c8.105469 8.480469 21.25 9.207031 29.925781 1.664062 4.488282-3.90625 7.109376-9.320312 7.382813-15.25.269531-5.847656-1.894531-11.625-5.941406-15.855469l-6.445313-6.742187c-3.316406-3.46875-4.726562-8.167969-3.875-12.890625.847656-4.6875 3.785156-8.5625 8.058594-10.625 54.941406-26.554688 113.972656-40.019531 175.453125-40.019531 1.195313 0 2.386719.003906 3.578125.015625 9.128906.09375 17.660156-3.402344 24.125-9.808594 6.488281-6.429688 10.058594-15.003906 10.058594-24.136719v-27.460937c.003906-18.574219-15.140625-33.816406-33.753906-33.9765628zm18.769531 61.4335938c0 5.105469-1.996094 9.898437-5.621094 13.488281-3.605469 3.574219-8.394531 5.554688-13.441406 5.46875-1.238281-.011718-2.472657-.015625-3.714844-.015625-63.757813 0-124.984375 13.964844-181.972656 41.511719-8.640625 4.171875-14.574219 11.992188-16.285157 21.453125-1.71875 9.496094 1.121094 18.941406 7.785157 25.914063l6.449219 6.742187c1.242187 1.300781 1.882812 3.011719 1.800781 4.808594s-.878907 3.445312-2.246094 4.632812c-2.582031 2.246094-6.734375 1.925781-9.257813-.710937l-8.886718-9.296875c-4.039063-4.222657-9.703125-6.644531-15.550782-6.644531-.007812 0-.011718 0-.019531 0-5.9375.003906-11.464843 2.382812-15.570312 6.691406-7.925781 8.324218-7.785157 21.488281.320312 29.964844l28.230469 29.527343c2.507812 2.625 2.457031 7.003907-.105469 9.570313-1.199219 1.199218-2.796875 1.820312-4.464843 1.832031-1.679688-.019531-3.25-.707031-4.425782-1.929687l-39.21875-41.023438c-5.589844-5.847656-13.128906-9.121094-21.21875-9.214844-.121094-.003906-.238281-.003906-.355468-.003906-7.910157 0-15.324219 3.0625-20.894532 8.625l-.117187.117188-.078125.074218-.183594.1875c-3.605469 3.609375-8.429688 5.597656-13.578125 5.597656 0 0 0 0-.003906 0-5.144531 0-9.964844-1.984374-13.570313-5.589843l-19.257812-19.257813c-7.390625-7.390625-7.402344-19.421875-.003906-26.835937l.355468-.355469c44.460938-44.464844 96.238282-79.375 153.886719-103.757812 59.679687-25.242188 123.078125-38.039063 188.4375-38.039063 1.292969 0 2.582031.003906 3.871094.015625h.003906c10.421875.09375 18.902344 8.613281 18.902344 18.992188zm0 0"/><path d="m378.242188 114.371094c-4.140626 0-7.492188 3.355468-7.492188 7.492187v369.425781c0 3.515626-2.679688 4.898438-3.503906 5.238282-.820313.339844-3.691406 1.257812-6.175782-1.226563l-263.484374-263.484375c-2.925782-2.925781-7.671876-2.925781-10.597657 0-2.925781 2.925782-2.925781 7.671875 0 10.597656l263.484375 263.484376c4 4 9.15625 6.101562 14.472656 6.101562 2.679688 0 5.402344-.535156 8.039063-1.625 7.863281-3.257812 12.75-10.570312 12.75-19.085938v-369.425781c0-4.136719-3.355469-7.492187-7.492187-7.492187zm0 0"/><path d="m321.4375 104.769531c-18.023438 0-32.683594 14.660157-32.683594 32.679688s14.660156 32.679687 32.683594 32.679687c18.019531 0 32.679688-14.660156 32.679688-32.679687s-14.660157-32.679688-32.679688-32.679688zm0 50.375c-9.757812 0-17.695312-7.9375-17.695312-17.695312 0-9.757813 7.9375-17.691407 17.695312-17.691407 9.753906 0 17.691406 7.933594 17.691406 17.691407 0 9.757812-7.9375 17.695312-17.691406 17.695312zm0 0"/><path d="m192.636719 298.136719c0 16.6875 13.578125 30.265625 30.269531 30.265625 16.6875 0 30.265625-13.578125 30.265625-30.265625 0-16.691407-13.578125-30.269531-30.265625-30.269531-16.691406 0-30.269531 13.578124-30.269531 30.269531zm30.269531-15.28125c8.425781 0 15.28125 6.855469 15.28125 15.28125s-6.855469 15.28125-15.28125 15.28125-15.285156-6.855469-15.285156-15.28125 6.859375-15.28125 15.285156-15.28125zm0 0"/><path d="m332.21875 263.371094c-17.277344 0-31.335938 14.058594-31.335938 31.335937 0 17.277344 14.058594 31.332031 31.335938 31.332031s31.332031-14.054687 31.332031-31.332031c0-17.277343-14.058593-31.335937-31.332031-31.335937zm0 47.679687c-9.015625 0-16.347656-7.332031-16.347656-16.34375 0-9.015625 7.332031-16.347656 16.347656-16.347656 9.011719 0 16.34375 7.332031 16.34375 16.347656 0 9.011719-7.332031 16.34375-16.34375 16.34375zm0 0"/><path d="m357.566406 385.3125c0-18.410156-14.980468-33.386719-33.386718-33.386719h-5.507813c-18.410156 0-33.390625 14.976563-33.390625 33.386719 0 7.988281 6.5 14.484375 14.484375 14.484375h1.964844l-.3125 5.863281c-.191407 3.644532 1.136719 7.253906 3.644531 9.902344 2.511719 2.648438 6.046875 4.167969 9.695312 4.167969h13.332032c3.648437 0 7.179687-1.519531 9.691406-4.167969s3.839844-6.257812 3.648438-9.902344l-.3125-5.863281h1.964843c7.984375.003906 14.484375-6.496094 14.484375-14.484375zm-21.464844-.5c-2.796874 0-5.503906 1.164062-7.425781 3.191406-1.925781 2.03125-2.941406 4.796875-2.792969 7.582032l.488282 9.15625h-9.894532l.488282-9.15625c.148437-2.792969-.871094-5.554688-2.796875-7.582032-1.921875-2.03125-4.628907-3.191406-7.421875-3.191406h-6.46875c.265625-9.917969 8.414062-17.898438 18.394531-17.898438h5.507813c9.976562 0 18.125 7.980469 18.390624 17.898438zm0 0"/><path d="m253.421875 160.210938c-20.960937 0-38.011719 17.050781-38.011719 38.015624v6.488282c0 20.960937 17.050782 38.011718 38.011719 38.011718 8.675781 0 15.734375-7.054687 15.734375-15.730468v-3.726563l8.320312.441407c3.9375.214843 7.820313-1.222657 10.675782-3.929688 2.855468-2.710938 4.492187-6.519531 4.492187-10.453125v-15.714844c0-3.933593-1.636719-7.746093-4.492187-10.453125-2.855469-2.707031-6.757813-4.140625-10.675782-3.929687l-8.320312.441406v-3.726563c0-8.675781-7.054688-15.734374-15.734375-15.734374zm24.238281 34.015624v14.484376l-12.199218-.648438c-2.933594-.148438-5.820313.910156-7.945313 2.925781s-3.347656 4.851563-3.347656 7.78125v8.222657c0 .414062-.332031.746093-.742188.746093-12.699219 0-23.027343-10.328125-23.027343-23.023437v-6.492188c0-12.695312 10.328124-23.027344 23.027343-23.027344.410157 0 .742188.335938.742188.746094v8.226563c0 2.929687 1.222656 5.765625 3.347656 7.78125s5.019531 3.074219 7.945313 2.921875zm0 0"/></svg>