<?xml version="1.0" encoding="iso-8859-1"?>
<!-- Generator: Adobe Illustrator 18.1.1, SVG Export Plug-In . SVG Version: 6.00 Build 0)  -->
<svg version="1.1" id="Capa_1" xmlns="http://www.w3.org/2000/svg" xmlns:xlink="http://www.w3.org/1999/xlink" x="0px" y="0px"
	 viewBox="0 0 56.366 56.366" style="enable-background:new 0 0 56.366 56.366;" xml:space="preserve">
<g>
	<g>
		<circle style="fill:#010002;" cx="28.554" cy="5.62" r="5.62"/>
		<path style="fill:#010002;" d="M46.629,1.669c-0.932-0.929-2.438-0.929-3.363,0L31.861,13.072
			c-0.906-0.592-1.986-0.939-3.149-0.939c-1.436,0-2.746,0.527-3.756,1.393L13.099,1.669c-0.928-0.929-2.435-0.929-3.364,0
			c-0.928,0.929-0.928,2.436,0,3.364L22.232,17.53c0.208,0.208,0.448,0.362,0.702,0.478v13.498c0,0.294,0.029,0.578,0.071,0.859
			c-0.042,0.179-0.069,0.358-0.069,0.55v21.069c0,1.315,1.065,2.381,2.379,2.381s2.379-1.064,2.379-2.381V37.188
			c0.331,0.061,0.67,0.096,1.019,0.096c0.35,0,0.688-0.035,1.021-0.096v16.797c0,1.315,1.064,2.381,2.379,2.381
			c1.313,0,2.379-1.064,2.379-2.381v-21.07c0-0.192-0.029-0.376-0.071-0.556c0.041-0.278,0.069-0.562,0.069-0.854V17.91
			c0-0.233-0.018-0.463-0.045-0.691L46.629,5.033C47.559,4.105,47.559,2.598,46.629,1.669z"/>
	</g>
</g>
<g>
</g>
<g>
</g>
<g>
</g>
<g>
</g>
<g>
</g>
<g>
</g>
<g>
</g>
<g>
</g>
<g>
</g>
<g>
</g>
<g>
</g>
<g>
</g>
<g>
</g>
<g>
</g>
<g>
</g>
</svg>
